<?xml version="1.0" encoding="UTF-8" standalone="no"?>
<svg
   xmlns:dc="http://purl.org/dc/elements/1.1/"
   xmlns:cc="http://creativecommons.org/ns#"
   xmlns:rdf="http://www.w3.org/1999/02/22-rdf-syntax-ns#"
   xmlns:svg="http://www.w3.org/2000/svg"
   xmlns="http://www.w3.org/2000/svg"
   version="1.1"
   id="svg833"
   width="521.55377"
   height="523.0802"
   viewBox="0 0 521.55378 523.0802">
  <metadata
     id="metadata839">
    <rdf:RDF>
      <cc:Work
         rdf:about="">
        <dc:format>image/svg+xml</dc:format>
        <dc:type
           rdf:resource="http://purl.org/dc/dcmitype/StillImage" />
        <dc:title></dc:title>
      </cc:Work>
    </rdf:RDF>
  </metadata>
  <defs
     id="defs837" />
  <g
     id="g841"
     transform="translate(-31.851633,-5.1529056)">
    <path
       style="fill:#000000;stroke-width:1.02128"
       d="m 38.598381,526.90126 c -6.605789,-2.66904 -6.524035,-2.0417 -6.524035,-50.06291 0,-48.85349 -0.14798,-47.86598 7.468439,-49.83959 12.260911,-3.17712 13.978369,1.424 13.978369,37.44848 0,26.16208 0,26.16208 87.063836,-60.77463 59.86289,-59.77548 87.93859,-87.13881 89.86374,-87.58363 6.87405,-1.58829 14.00579,5.54344 12.41757,12.41754 -0.44486,1.9254 -27.96012,30.15281 -88.09432,90.37438 -87.44742,87.57447 -87.44742,87.57447 -59.014106,87.57447 23.551786,0 29.005366,0.27146 31.765306,1.58113 7.56563,3.59014 7.56563,14.69442 0,18.28455 -3.74203,1.7757 -84.659284,2.30367 -88.924799,0.58021 z M 457.3165,526.30248 c -7.41744,-3.69952 -7.32089,-14.71602 0.16009,-18.26598 2.75993,-1.30967 8.21351,-1.58113 31.76529,-1.58113 28.43331,0 28.43331,0 -59.0141,-87.57447 -60.1342,-60.22157 -87.64946,-88.44898 -88.09432,-90.37438 -1.58822,-6.8741 5.54352,-14.00583 12.41757,-12.41754 1.92515,0.44482 30.00085,27.80815 89.86374,87.58363 87.06383,86.93671 87.06383,86.93671 87.06383,60.77463 0,-14.38914 0.28593,-27.59173 0.6354,-29.33907 1.76988,-8.84942 13.15565,-11.64198 18.70461,-4.58762 3.9436,5.01347 3.15999,89.02144 -0.87249,93.53573 -3.50171,3.92011 -85.29667,5.90358 -92.62962,2.2462 z M 229.18073,216.30803 C 227.77648,215.75991 187.6786,176.38154 140.07435,128.80055 53.521154,42.289663 53.521154,42.289663 53.521154,68.457623 c 0,36.031007 -1.716986,40.631597 -13.978369,37.454357 -7.618408,-1.97414 -7.468439,-0.9709 -7.468439,-49.961207 0,-56.94239965 -6.365809,-50.3491696 48.969727,-50.7191496 50.654267,-0.33867 52.136657,-0.0401 52.136657,10.5003396 0,9.81969 -3.15382,10.72341 -37.422856,10.72341 -28.433314,0 -28.433314,0 59.014106,87.574467 60.1342,60.22157 87.64946,88.44898 88.09432,90.37438 1.78721,7.73533 -6.31347,14.78137 -13.68557,11.90381 z m 118.68518,-0.4126 c -3.96588,-1.7231 -6.71573,-7.23541 -5.73245,-11.49121 0.44486,-1.9254 27.96012,-30.15281 88.09432,-90.37438 87.44741,-87.574467 87.44741,-87.574467 59.0141,-87.574467 -34.26903,0 -37.42285,-0.90372 -37.42285,-10.72341 0,-10.5404596 1.48239,-10.8390096 52.13666,-10.5003396 55.33553,0.36998 48.96972,-6.22325005 48.96972,50.7191496 0,48.990307 0.14997,47.987067 -7.46844,49.961207 -12.26137,3.17724 -13.97837,-1.42335 -13.97837,-37.454357 0,-26.16796 0,-26.16796 -86.55319,60.336507 -48.66223,48.63483 -87.81179,86.97189 -89.42818,87.57221 -3.54069,1.31498 -3.51763,1.3164 -7.63132,-0.47091 z"
       id="path845" />
  </g>
</svg>
