<?xml version="1.0" encoding="UTF-8" standalone="no"?>
<svg
   xmlns:dc="http://purl.org/dc/elements/1.1/"
   xmlns:cc="http://creativecommons.org/ns#"
   xmlns:rdf="http://www.w3.org/1999/02/22-rdf-syntax-ns#"
   xmlns:svg="http://www.w3.org/2000/svg"
   xmlns="http://www.w3.org/2000/svg"
   width="83.182991mm"
   height="89.591957mm"
   viewBox="0 0 83.182993 89.59196"
   version="1.1"
   id="svg8">
  <defs
     id="defs2" />
  <metadata
     id="metadata5">
    <rdf:RDF>
      <cc:Work
         rdf:about="">
        <dc:format>image/svg+xml</dc:format>
        <dc:type
           rdf:resource="http://purl.org/dc/dcmitype/StillImage" />
        <dc:title></dc:title>
      </cc:Work>
    </rdf:RDF>
  </metadata>
  <g
     id="layer1"
     transform="translate(73.711054,-125.85311)">
    <path
       style="fill:var(--color);stroke-width:0.175172"
       d="m -34.590013,214.76731 c -12.514049,-4.55011 -22.419768,-14.09806 -29.183393,-28.12937 -4.897963,-10.16095 -8.190259,-22.67133 -9.530137,-36.21352 -0.316318,-3.19704 -0.509003,-7.92527 -0.351441,-8.62387 0.177854,-0.78859 1.077506,-1.7746 1.828204,-2.0037 0.29598,-0.0903 1.20818,-0.25272 2.027111,-0.36088 7.612665,-1.00543 17.072418,-3.56274 23.805883,-6.4356 3.942535,-1.68209 7.06866,-3.35636 10.68836,-5.7244 2.074571,-1.35721 2.220747,-1.42286 3.167827,-1.42286 0.94708,0 1.093256,0.0656 3.167827,1.42286 3.6197,2.36804 6.745825,4.04231 10.68836,5.7244 6.733465,2.87286 16.1932163,5.43017 23.8058863,6.4356 0.81893,0.10816 1.73113,0.27055 2.02711,0.36088 0.7507,0.2291 1.65035,1.21511 1.8282,2.0037 0.37076,1.64389 -0.42697,10.84025 -1.50373,17.33532 -4.19306,25.29262 -14.832015,43.51651 -30.6261443,52.46074 -3.167753,1.79391 -8.252784,3.86705 -9.439236,3.84833 -0.308757,-0.005 -1.389066,-0.3098 -2.400687,-0.67763 z m 4.405849,-5.89188 c 8.419002,-3.37819 15.47405,-9.47541 20.9599163,-18.1143 6.784352,-10.68368 11.397882,-26.15272 12.723372,-42.66113 0.13151,-1.63786 0.18775,-3.02398 0.12498,-3.08027 -0.0628,-0.0563 -1.13887,-0.275 -2.39136,-0.48603 -11.4143323,-1.92317 -23.4447203,-6.23972 -31.4872403,-11.29772 l -1.883103,-1.1843 -1.883103,1.1843 c -8.04252,5.058 -20.072908,9.37455 -31.487243,11.29772 -1.252482,0.21103 -2.328595,0.42974 -2.391361,0.48603 -0.135496,0.12151 0.256999,5.16058 0.63491,8.15132 2.935405,23.23043 11.318324,41.04241 23.681019,50.31732 3.548667,2.66233 6.507492,4.26701 11.38473,6.17436 0.01459,0.006 0.921113,-0.34858 2.014483,-0.7873 z m -3.967918,-24.59418 c -0.289034,-0.0674 -0.686849,-0.20919 -0.884032,-0.31517 -0.8766,-0.47114 -10.883701,-9.19867 -11.243776,-9.80607 -1.341963,-2.26373 1.101407,-5.02407 3.482632,-3.93442 0.41933,0.19189 2.55026,1.89073 4.7354,3.77521 l 3.972982,3.42632 7.998702,-10.49366 c 4.399285,-5.77151 8.194862,-10.62219 8.434615,-10.77928 2.077226,-1.36105 4.916018,0.63824 4.276815,3.01206 -0.250032,0.92854 -18.05319,24.32901 -18.846441,24.77175 -0.694173,0.38744 -1.285398,0.49276 -1.926897,0.34326 z"
       id="path867" />
  </g>
</svg>
